#!OML:ASF G:\JayActor3\Patient Classification 1\Patient 1\Session 6\male.ASF
:FULLY-SPECIFIED
:DEGREES
960
root 7.32108 15.2717 -3.26489 386.526 -27.094 -345.715
lowerback 34.9375 3.88207 9.7621
upperback 18.7778 6.80317 6.67657
thorax 3.45957 3.50561 0.131549
lowerneck 6.9336 -10.5958 0.65697
upperneck -4.75414 -13.6918 4.87978
head -2.38525 -6.96423 1.99146
rclavicle 4.45278e-014 5.62561e-014
rhumerus 58.9834 -16.8733 -69.7236
rradius 8.72566
rwrist 31.5425
rhand 11.7517 -17.0806
rfingers 7.12502
rthumb 36.7858 -43.2002
lclavicle 4.45278e-014 5.62561e-014
lhumerus -44.8608 9.48868 88.7116
lradius 17.435
lwrist 25.5611
lhand 4.21056 18.4757
lfingers 7.12502
lthumb 29.6167 46.1317
rfemur -77.4911 -20.7874 17.6656
rtibia 69.9989
rfoot -28.4407 -15.283
rtoes 6.8937
lfemur -67.4143 -2.80627 -39.8145
ltibia 43.8942
lfoot -3.04624 -14.4667
ltoes 15.3135
961
root 7.30781 15.3261 -3.26254 386.271 -27.3011 -346.441
lowerback 34.3454 3.98605 9.41272
upperback 18.6628 6.78895 6.59391
thorax 3.49411 3.47829 0.237488
lowerneck 6.78159 -10.2762 0.651957
upperneck -4.06943 -13.3061 4.50504
head -2.16452 -6.74608 1.81856
rclavicle 6.99722e-014 4.00551e-014
rhumerus 58.2512 -15.936 -70.922
rradius 9.24513
rwrist 29.9056
rhand 12.6167 -15.9992
rfingers 7.12502
rthumb 37.6038 -41.9051
lclavicle 6.99722e-014 4.00551e-014
lhumerus -44.9508 9.60781 89.0338
lradius 17.4321
lwrist 25.387
lhand 4.25771 18.4326
lfingers 7.12502
lthumb 29.6617 46.0806
rfemur -76.2282 -20.1603 17.9833
rtibia 69.1218
rfoot -28.3635 -15.3163
rtoes 7.26652
lfemur -66.6153 -2.3683 -38.9661
ltibia 43.4389
lfoot -3.1716 -14.0882
ltoes 14.878
962
root 7.29194 15.3817 -3.25976 386.011 -27.5241 -347.213
lowerback 33.7631 4.07723 9.06128
upperback 18.5415 6.76456 6.50295
thorax 3.52277 3.44579 0.339391
lowerneck 6.57901 -9.92015 0.631471
upperneck -3.27751 -12.8725 4.13852
head -1.89952 -6.50359 1.64418
rclavicle 9.54166e-014 -4.2043e-014
rhumerus 57.387 -15.0272 -72.1319
rradius 9.91
rwrist 28.2002
rhand 13.6668 -14.6133
rfingers 7.12502
rthumb 38.5953 -40.2481
lclavicle 9.54166e-014 -4.2043e-014
lhumerus -45.016 9.69487 89.3452
lradius 17.4172
lwrist 25.1834
lhand 4.36328 18.3985
lfingers 7.12502
lthumb 29.7625 46.0285
rfemur -74.8992 -19.4854 18.3302
rtibia 68.2036
rfoot -28.2938 -15.3635
rtoes 7.6652
lfemur -65.7784 -1.90702 -38.0613
ltibia 42.9881
lfoot -3.3003 -13.6941
ltoes 14.4243
963
root 7.27348 15.4383 -3.25623 385.75 -27.7557 -348.013
lowerback 33.1625 4.12984 8.67566
upperback 18.4164 6.68806 6.40527
thorax 3.5518 3.38554 0.4664
lowerneck 6.36233 -9.495 0.502121
upperneck -2.38771 -12.353 3.81719
head -1.59372 -6.21884 1.49722
rclavicle -5.08889e-014 4.37326e-015
rhumerus 56.4173 -14.0515 -73.3626
rradius 10.7147
rwrist 26.4225
rhand 14.8676 -13.1041
rfingers 7.12502
rthumb 39.727 -38.4119
lclavicle -5.08889e-014 4.37326e-015
lhumerus -45.0746 9.87709 89.6143
lradius 17.4002
lwrist 24.9191
lhand 4.52672 18.371
lfingers 7.12502
lthumb 29.9184 45.973
rfemur -73.5221 -18.7847 18.7003
rtibia 67.2524
rfoot -28.2289 -15.4259
rtoes 8.05247
lfemur -64.9076 -1.43363 -37.1219
ltibia 42.5385
lfoot -3.42298 -13.2978
ltoes 14.0018
964
root 7.25237 15.4957 -3.25169 385.479 -27.9894 -348.821
lowerback 32.5496 4.13093 8.29404
upperback 18.2857 6.55419 6.27212
thorax 3.58692 3.30015 0.570536
lowerneck 6.12025 -9.01458 0.298632
upperneck -1.40522 -11.7619 3.55766
head -1.25005 -5.90034 1.37911
rclavicle 4.77083e-014 4.65156e-014
rhumerus 54.4159 -9.84242 -70.0007
rradius 11.7103
rwrist 19.1225
rhand 15.3404 -12.5352
rfingers 7.12502
rthumb 40.172 -37.7091
lclavicle 4.77083e-014 4.65156e-014
lhumerus -45.112 10.1095 89.8075
lradius 17.3846
lwrist 24.6002
lhand 4.72372 18.34
lfingers 7.12502
lthumb 30.1064 45.9079
rfemur -72.1007 -18.0838 19.0846
rtibia 66.2764
rfoot -28.161 -15.4971
rtoes 8.41769
lfemur -63.9918 -0.968573 -36.1595
ltibia 42.0852
lfoot -3.55515 -12.8931
ltoes 13.5431
965
root 7.22885 15.5534 -3.2459 385.189 -28.2184 -349.607
lowerback 31.9237 4.08516 7.89327
upperback 18.1476 6.36341 6.11705
thorax 3.62197 3.18701 0.676516
lowerneck 5.84647 -8.4869 0.0353381
upperneck -0.335899 -11.1102 3.33868
head -0.873674 -5.55375 1.28325
rclavicle -5.40694e-014 4.13472e-014
rhumerus 52.8436 -5.86566 -67.5665
rradius 12.9313
rwrist 12.6042
rhand 15.6022 -12.0016
rfingers 7.12502
rthumb 40.4182 -37.1001
lclavicle -5.40694e-014 4.13472e-014
lhumerus -45.1325 10.4036 89.9302
lradius 17.376
lwrist 24.2394
lhand 4.92588 18.2997
lfingers 7.12502
lthumb 30.2993 45.8324
rfemur -70.6492 -17.4102 19.4623
rtibia 65.2888
rfoot -28.0885 -15.566
rtoes 8.75958
lfemur -63.0291 -0.514805 -35.2141
ltibia 41.6251
lfoot -3.68724 -12.5051
ltoes 13.0835
966
root 7.20315 15.6108 -3.2389 384.877 -28.4335 -350.363
lowerback 31.297 4.00313 7.50824
upperback 17.9967 6.13862 5.9358
thorax 3.65314 3.06017 0.75563
lowerneck 5.52621 -7.94002 -0.232901
upperneck 0.817669 -10.4313 3.15694
head -0.467317 -5.19593 1.20213
rclavicle -3.49861e-014 3.65764e-014
rhumerus 51.1822 -1.89566 -65.3667
rradius 14.9946
rwrist 6.14893
rhand 15.7358 -11.8762
rfingers 7.12502
rthumb 40.5438 -36.9359
lclavicle -3.49861e-014 3.65764e-014
lhumerus -45.1273 10.6622 89.9848
lradius 17.3835
lwrist 23.8963
lhand 5.09484 18.2669
lfingers 7.12502
lthumb 30.4604 45.7698
rfemur -69.1747 -16.78 19.8326
rtibia 64.2997
rfoot -28.0132 -15.6256
rtoes 9.08306
lfemur -62.0173 -0.0946634 -34.2827
ltibia 41.1562
lfoot -3.82472 -12.1208
ltoes 12.6216
967
root 7.17566 15.6668 -3.23099 384.547 -28.6265 -351.087
lowerback 30.3618 3.94546 7.1019
upperback 17.8537 5.91324 5.76866
thorax 3.95049 2.93522 0.888028
lowerneck 5.14723 -7.41348 -0.427042
upperneck 2.03926 -9.77329 2.97781
head -0.0391285 -4.85024 1.11543
rclavicle 4.77083e-014 9.30312e-014
rhumerus 49.7032 1.36797 -64.2689
rradius 17.1375
rwrist 0.852351
rhand 15.5576 -11.758
rfingers 7.12502
rthumb 40.3763 -36.8694
lclavicle 4.77083e-014 9.30312e-014
lhumerus -45.089 10.7896 89.9899
lradius 17.4038
lwrist 23.5895
lhand 5.2006 18.2355
lfingers 7.12502
lthumb 30.5613 45.7197
rfemur -67.6957 -16.1968 20.1958
rtibia 63.3208
rfoot -27.9399 -15.6733
rtoes 9.40671
lfemur -60.971 0.290159 -33.3732
ltibia 40.6801
lfoot -3.96235 -11.7522
ltoes 12.1622
968
root 7.14692 15.721 -3.2222 384.212 -28.7967 -351.782
lowerback 29.7529 3.86285 6.8079
upperback 17.6604 5.7258 5.57273
thorax 3.9575 2.83399 0.898586
lowerneck 4.68653 -6.92759 -0.529083
upperneck 3.33835 -9.16356 2.78407
head 0.418757 -4.52911 1.01571
rclavicle -5.40694e-014 -2.8625e-014
rhumerus 48.2215 4.03965 -63.8909
rradius 19.3566
rwrist -3.61897
rhand 15.2378 -11.6245
rfingers 7.12502
rthumb 40.0754 -36.8278
lclavicle -5.40694e-014 -2.8625e-014
lhumerus -45.0071 10.8015 89.9257
lradius 17.4149
lwrist 23.2888
lhand 5.25665 18.2052
lfingers 7.12502
lthumb 30.6147 45.6794
rfemur -66.2289 -15.6596 20.5574
rtibia 62.3576
rfoot -27.8695 -15.7127
rtoes 9.71435
lfemur -59.9042 0.621384 -32.4712
ltibia 40.1997
lfoot -4.1006 -11.3795
ltoes 11.7503
969
root 7.11685 15.7729 -3.21254 383.872 -28.9513 -352.446
lowerback 29.1433 3.78908 6.61256
upperback 17.4454 5.57586 5.34258
thorax 3.96062 2.76202 0.807354
lowerneck 4.15794 -6.4964 -0.486573
upperneck 4.69175 -8.61942 2.59132
head 0.901233 -4.23982 0.901032
rclavicle -8.90555e-014 -1.04163e-013
rhumerus 46.6275 6.16845 -64.0858
rradius 21.6338
rwrist -7.47217
rhand 14.8753 -11.4773
rfingers 7.12502
rthumb 39.7343 -36.783
lclavicle -8.90555e-014 -1.04163e-013
lhumerus -44.8827 10.6184 89.7554
lradius 17.4158
lwrist 23.0384
lhand 5.23287 18.1501
lfingers 7.12502
lthumb 30.5921 45.6285
rfemur -64.7813 -15.1575 20.9086
rtibia 61.4155
rfoot -27.8065 -15.7457
rtoes 10.0151
lfemur -58.8273 0.912012 -31.5901
ltibia 39.7206
lfoot -4.24147 -11.0125
ltoes 11.3641
970
root 7.08551 15.822 -3.20191 383.527 -29.1053 -353.076
lowerback 28.5346 3.72567 6.49727
upperback 17.2145 5.45922 5.07425
thorax 3.96318 2.71577 0.622156
lowerneck 3.55365 -6.11132 -0.322017
upperneck 6.08873 -8.13441 2.40096
head 1.41456 -3.97792 0.772973
rclavicle -3.18055e-014 8.74653e-015
rhumerus 44.9049 7.85313 -64.7073
rradius 23.9585
rwrist -10.8466
rhand 14.6655 -11.319
rfingers 7.12502
rthumb 39.5367 -36.6831
lclavicle -3.18055e-014 8.74653e-015
lhumerus -44.7143 10.2633 89.4919
lradius 17.4098
lwrist 22.8304
lhand 5.11326 18.0382
lfingers 7.12502
lthumb 30.478 45.5378
rfemur -63.3545 -14.6771 21.2453
rtibia 60.4942
rfoot -27.7331 -15.8068
rtoes 10.1264
lfemur -57.7455 1.16443 -30.7314
ltibia 39.2485
lfoot -4.39288 -10.6387
ltoes 10.993
971
root 7.05271 15.8682 -3.19043 383.176 -29.271 -353.67
lowerback 27.9209 3.65693 6.37041
upperback 16.9745 5.33561 4.8021
thorax 3.95883 2.66515 0.440934
lowerneck 2.92237 -5.7227 -0.181748
upperneck 7.49511 -7.64902 2.22217
head 1.95108 -3.71702 0.657428
rclavicle -3.49861e-014 -3.18055e-015
rhumerus 43.1114 9.336 -65.5581
rradius 26.3277
rwrist -13.8915
rhand 14.7173 -11.21
rfingers 7.12502
rthumb 39.5854 -36.5598
lclavicle -3.49861e-014 -3.18055e-015
lhumerus -44.5257 9.95182 89.1464
lradius 17.3911
lwrist 22.6185
lhand 4.86183 17.8536
lfingers 7.12502
lthumb 30.2382 45.3975
rfemur -61.9483 -14.2019 21.5577
rtibia 59.5965
rfoot -27.6583 -15.9005
rtoes 10.0602
lfemur -56.6631 1.41324 -29.9169
ltibia 38.7847
lfoot -4.54291 -10.2869
ltoes 10.6631
972
root 7.01818 15.9117 -3.17819 382.816 -29.4532 -354.236
lowerback 27.302 3.58276 6.28078
upperback 16.7318 5.21351 4.49544
thorax 3.96515 2.62051 0.202307
lowerneck 2.27591 -5.34098 -0.0184374
upperneck 8.87904 -7.17684 2.0787
head 2.49988 -3.46242 0.553392
rclavicle 1.08139e-013 -1.74931e-014
rhumerus 41.2471 10.6058 -66.6096
rradius 28.7202
rwrist -16.7014
rhand 14.8684 -11.1403
rfingers 7.12502
rthumb 39.7277 -36.4479
lclavicle 1.08139e-013 -1.74931e-014
lhumerus -44.2937 9.62158 88.691
lradius 17.3613
lwrist 22.4231
lhand 4.4094 17.6114
lfingers 7.12502
lthumb 29.8065 45.2335
rfemur -60.5545 -13.72 21.8492
rtibia 58.7175
rfoot -27.5846 -16.0326
rtoes 9.82959
lfemur -55.58 1.65305 -29.1316
ltibia 38.3356
lfoot -4.70167 -9.93952
ltoes 10.3449
973
root 6.9814 15.9531 -3.16527 382.435 -29.6675 -354.736
lowerback 26.6625 3.50604 6.14362
upperback 16.4958 5.07773 4.17119
thorax 3.98719 2.56674 -0.024164
lowerneck 1.6325 -4.94956 0.11856
upperneck 10.2173 -6.69532 1.95313
head 3.05127 -3.20515 0.46437
rclavicle 7.31528e-014 5.56597e-015
rhumerus 39.3635 11.7594 -67.7704
rradius 31.1154
rwrist -19.3347
rhand 15.1322 -11.1066
rfingers 7.12502
rthumb 39.9761 -36.3399
lclavicle 7.31528e-014 5.56597e-015
lhumerus -44.0281 9.33405 88.1735
lradius 17.3313
lwrist 22.2759
lhand 3.71728 17.3142
lfingers 7.12502
lthumb 29.1457 45.0528
rfemur -59.1806 -13.2252 22.0726
rtibia 57.8609
rfoot -27.5416 -16.1597
rtoes 9.61439
lfemur -54.4996 1.92438 -28.4406
ltibia 37.9023
lfoot -4.86026 -9.64518
ltoes 10.0535
